<svg width="990" height="403" viewBox="0 0 990 403" fill="none" xmlns="http://www.w3.org/2000/svg">
    <path
        d="M788.5 0C899.785 0 990 90.2146 990 201.5C990 312.785 899.785 403 788.5 403C677.215 403 587 312.785 587 201.5C587 90.2146 677.215 0 788.5 0ZM788.979 42.2188C700.746 42.2189 629.219 113.746 629.219 201.979C629.219 290.213 700.746 361.74 788.979 361.74C877.213 361.74 948.74 290.213 948.74 201.979C948.74 113.746 877.213 42.2188 788.979 42.2188Z"
        fill="#4BB8DB" />
    <path
        d="M176.678 335.252H35.3359L0 367V208.262H176.678V335.252ZM17.668 328.704L28.0479 319.379H159.01V224.136H17.668V328.704ZM106.007 287.631V303.505H35.3359V287.631H106.007ZM141.342 263.82V279.694H35.3359V263.82H141.342ZM141.342 240.01V255.884H35.3359V240.01H141.342Z"
        fill="#4BB8DB" fill-opacity="0.5" />
    <path
        d="M123.967 184.934H286.394L327 221.417V39H123.967V184.934ZM306.696 177.409L294.769 166.692H144.271V57.2422H306.696V177.409ZM205.181 130.209V148.45H286.394V130.209H205.181ZM164.573 102.846V121.088H286.394V102.846H164.573ZM164.573 75.4834V93.7256H286.394V75.4834H164.573Z"
        fill="#4BB8DB" fill-opacity="0.5" />
</svg>